<?xml version="1.0" encoding="UTF-8" standalone="no"?>
<!DOCTYPE svg PUBLIC "-//W3C//DTD SVG 1.1//EN" "http://www.w3.org/Graphics/SVG/1.1/DTD/svg11.dtd">
<svg xmlns="http://www.w3.org/2000/svg" version="1.1" viewBox="0.00 0.00 512.00 484.00">
<g stroke-width="2.00" fill="none" stroke-linecap="butt">
<path stroke="#3d8998" vector-effect="non-scaling-stroke" d="
  M 141.6488 277.6140
  A 32.83 24.62 82.3 0 0 161.6480 241.7813
  A 32.83 24.62 82.3 0 0 132.8512 212.5460
  A 32.83 24.62 82.3 0 0 112.8520 248.3787
  A 32.83 24.62 82.3 0 0 141.6488 277.6140"
/>
<path stroke="#3d8998" vector-effect="non-scaling-stroke" d="
  M 274.64 250.46
  C 277.34 257.89 286.89 260.37 293.53 262.40
  C 310.93 267.70 326.98 267.85 344.25 266.35
  C 358.08 265.15 343.15 247.21 333.98 248.35
  Q 308.57 251.52 284.74 242.83
  C 279.39 240.87 272.10 243.48 274.64 250.46"
/>
<path stroke="#3d8998" vector-effect="non-scaling-stroke" d="
  M 271.41 325.53
  A 46.42 36.86 0.0 0 0 224.99 288.67
  A 46.42 36.86 0.0 0 0 178.57 325.53
  A 46.42 36.86 0.0 0 0 224.99 362.39
  A 46.42 36.86 0.0 0 0 271.41 325.53"
/>
<path stroke="#3d8998" vector-effect="non-scaling-stroke" d="
  M 303.72 381.70
  C 304.67 374.18 299.15 369.21 291.95 373.18
  C 279.58 380.00 266.08 381.91 252.13 382.06
  Q 236.55 382.23 221.05 383.90
  C 207.71 385.34 216.27 403.85 220.28 409.90
  C 229.22 423.39 245.85 433.32 262.48 431.26
  C 286.51 428.27 300.88 404.21 303.72 381.70"
/>
<path stroke="#92a1b4" vector-effect="non-scaling-stroke" d="
  M 224.3800 306.7085
  A 12.34 7.41 -0.1 0 0 212.0271 299.3200
  A 12.34 7.41 -0.1 0 0 199.7000 306.7515
  A 12.34 7.41 -0.1 0 0 212.0529 314.1400
  A 12.34 7.41 -0.1 0 0 224.3800 306.7085"
/>
</g>
<path fill="#55cec8" d="
  M 111.81 0.00
  L 117.05 0.00
  Q 128.84 1.21 140.10 4.46
  C 176.82 15.07 199.69 46.39 211.12 81.32
  Q 211.29 81.83 211.81 81.72
  C 245.06 74.76 279.67 74.17 312.67 82.84
  Q 313.12 82.96 313.29 82.52
  Q 315.50 76.51 317.82 70.52
  C 332.99 31.34 365.86 2.08 409.23 1.11
  C 460.56 -0.04 508.48 39.78 504.69 94.05
  C 502.62 123.53 488.30 150.60 469.52 173.18
  Q 469.08 173.71 468.59 173.22
  L 463.72 168.34
  Q 463.48 168.10 463.30 168.39
  Q 463.22 168.52 463.21 168.69
  Q 463.21 168.93 463.46 169.22
  Q 472.39 179.90 475.55 183.95
  C 497.76 212.41 511.08 244.87 512.00 281.08
  L 512.00 283.80
  Q 511.33 298.84 509.20 308.99
  C 501.72 344.71 480.13 378.05 453.31 402.80
  C 397.30 454.51 321.36 482.29 246.20 484.00
  L 240.69 484.00
  Q 228.67 483.60 216.68 482.82
  C 148.29 478.37 78.37 447.81 35.33 392.92
  C 13.71 365.36 0.96 332.47 0.00 296.67
  L 0.00 293.45
  C 1.14 253.59 16.35 217.71 40.30 186.33
  C 44.58 180.73 50.13 174.69 55.07 168.88
  Q 55.25 168.66 55.25 168.50
  Q 55.24 168.37 55.16 168.26
  A 0.27 0.27 0.0 0 0 54.74 168.21
  L 50.64 172.20
  Q 50.20 172.63 49.80 172.16
  C 29.72 148.25 13.60 116.99 15.02 85.19
  C 17.33 33.74 63.08 0.84 111.81 0.00
  Z
  M 314.87 82.76
  A 0.38 0.38 0.0 0 0 314.53 83.40
  Q 315.29 84.17 316.35 83.98
  A 0.47 0.47 0.0 0 0 316.36 83.05
  L 314.87 82.76
  Z
  M 141.6488 277.6140
  A 32.83 24.62 82.3 0 0 161.6480 241.7813
  A 32.83 24.62 82.3 0 0 132.8512 212.5460
  A 32.83 24.62 82.3 0 0 112.8520 248.3787
  A 32.83 24.62 82.3 0 0 141.6488 277.6140
  Z
  M 274.64 250.46
  C 277.34 257.89 286.89 260.37 293.53 262.40
  C 310.93 267.70 326.98 267.85 344.25 266.35
  C 358.08 265.15 343.15 247.21 333.98 248.35
  Q 308.57 251.52 284.74 242.83
  C 279.39 240.87 272.10 243.48 274.64 250.46
  Z
  M 271.41 325.53
  A 46.42 36.86 0.0 0 0 224.99 288.67
  A 46.42 36.86 0.0 0 0 178.57 325.53
  A 46.42 36.86 0.0 0 0 224.99 362.39
  A 46.42 36.86 0.0 0 0 271.41 325.53
  Z
  M 303.72 381.70
  C 304.67 374.18 299.15 369.21 291.95 373.18
  C 279.58 380.00 266.08 381.91 252.13 382.06
  Q 236.55 382.23 221.05 383.90
  C 207.71 385.34 216.27 403.85 220.28 409.90
  C 229.22 423.39 245.85 433.32 262.48 431.26
  C 286.51 428.27 300.88 404.21 303.72 381.70
  Z"
/>
<ellipse fill="#254368" cx="0.00" cy="0.00" transform="translate(137.25,245.08) rotate(82.3)" rx="32.83" ry="24.62"/>
<path fill="#254368" d="
  M 293.53 262.40
  C 286.89 260.37 277.34 257.89 274.64 250.46
  C 272.10 243.48 279.39 240.87 284.74 242.83
  Q 308.57 251.52 333.98 248.35
  C 343.15 247.21 358.08 265.15 344.25 266.35
  C 326.98 267.85 310.93 267.70 293.53 262.40
  Z"
/>
<path fill="#254368" d="
  M 271.41 325.53
  A 46.42 36.86 0.0 0 1 224.99 362.39
  A 46.42 36.86 0.0 0 1 178.57 325.53
  A 46.42 36.86 0.0 0 1 224.99 288.67
  A 46.42 36.86 0.0 0 1 271.41 325.53
  Z
  M 224.3800 306.7085
  A 12.34 7.41 -0.1 0 0 212.0271 299.3200
  A 12.34 7.41 -0.1 0 0 199.7000 306.7515
  A 12.34 7.41 -0.1 0 0 212.0529 314.1400
  A 12.34 7.41 -0.1 0 0 224.3800 306.7085
  Z"
/>
<ellipse fill="#ffffff" cx="0.00" cy="0.00" transform="translate(212.04,306.73) rotate(-0.1)" rx="12.34" ry="7.41"/>
<path fill="#254368" d="
  M 291.95 373.18
  C 299.15 369.21 304.67 374.18 303.72 381.70
  C 300.88 404.21 286.51 428.27 262.48 431.26
  C 245.85 433.32 229.22 423.39 220.28 409.90
  C 216.27 403.85 207.71 385.34 221.05 383.90
  Q 236.55 382.23 252.13 382.06
  C 266.08 381.91 279.58 380.00 291.95 373.18
  Z"
/>
</svg>
